<?xml version="1.0" standalone="no"?>
<!DOCTYPE svg PUBLIC "-//W3C//DTD SVG 20010904//EN"
 "http://www.w3.org/TR/2001/REC-SVG-20010904/DTD/svg10.dtd">
<svg version="1.0" xmlns="http://www.w3.org/2000/svg"
 width="700.000000pt" height="700.000000pt" viewBox="0 0 700.000000 700.000000"
 preserveAspectRatio="xMidYMid meet">
<metadata>
Created by potrace 1.11, written by Peter Selinger 2001-2013
</metadata>
<g transform="translate(0.000000,700.000000) scale(0.100000,-0.100000)"
fill="#000000" stroke="none">
<path d="M3497 6911 c-90 -273 -279 -561 -608 -921 -100 -111 -142 -154 -557
-575 -329 -334 -475 -489 -612 -651 -396 -468 -642 -898 -769 -1344 -30 -107
-59 -236 -67 -300 -3 -19 -10 -66 -16 -105 -20 -126 -18 -492 3 -655 10 -80
21 -152 25 -160 3 -8 8 -33 11 -55 11 -85 89 -340 149 -485 35 -85 151 -307
205 -391 132 -208 346 -455 538 -619 56 -48 214 -167 259 -195 120 -75 161
-99 242 -142 93 -49 281 -133 298 -133 7 0 23 44 48 135 1 6 21 68 42 140 100
325 144 472 148 494 3 14 7 28 10 32 6 10 120 418 169 604 20 77 47 181 60
230 25 94 100 434 110 495 3 19 15 83 25 142 22 122 35 286 26 322 -12 47 -67
38 -93 -15 -6 -13 -45 -130 -86 -259 -170 -532 -225 -702 -342 -1055 -174
-522 -180 -535 -229 -485 -21 21 -25 39 -31 110 -4 47 -8 103 -10 125 -2 22
-6 81 -10 130 -3 50 -8 110 -10 135 -2 25 -7 86 -10 135 -4 50 -8 106 -10 125
-3 33 -13 153 -20 250 -2 25 -6 81 -10 125 -3 44 -8 103 -10 130 -6 74 -16
205 -20 250 -2 22 -6 81 -9 130 -4 50 -9 113 -11 140 -4 45 -13 149 -20 248
-1 21 -6 42 -11 46 -5 5 -40 18 -79 30 -98 30 -140 49 -220 100 -87 55 -91 59
-90 113 1 36 4 43 23 46 12 2 20 7 17 12 -7 11 25 28 45 25 27 -5 115 -26 133
-31 11 -3 17 0 17 10 0 56 140 3 243 -93 l47 -44 82 17 c45 9 85 19 88 24 4 4
23 58 43 119 134 407 332 683 517 720 25 5 29 9 24 26 -12 38 -10 240 2 307
28 146 91 278 161 340 26 23 89 66 139 95 l91 53 29 -25 c153 -129 333 -303
401 -388 60 -76 123 -172 123 -189 0 -21 -32 -20 -56 2 -54 50 -128 102 -145
102 -28 0 -16 -36 48 -146 67 -114 97 -196 89 -244 -5 -34 -3 -36 56 -74 82
-54 186 -160 248 -254 84 -127 150 -273 262 -587 41 -115 46 -123 116 -194
l72 -75 63 61 c34 34 82 71 107 81 25 11 62 36 82 56 33 33 39 35 67 25 29
-10 30 -12 24 -57 -9 -71 -44 -141 -99 -199 -41 -43 -60 -55 -121 -73 -52 -15
-73 -27 -74 -38 0 -10 -2 -28 -5 -42 -21 -128 -81 -512 -89 -570 -3 -25 -10
-70 -15 -100 -5 -30 -11 -68 -14 -85 -9 -63 -18 -121 -22 -140 -2 -10 -6 -37
-9 -60 -4 -22 -15 -96 -26 -165 -37 -229 -48 -305 -55 -358 -7 -55 -42 -112
-69 -112 -20 0 -23 8 -29 90 -12 150 -18 201 -31 270 -3 14 -7 41 -10 60 -3
19 -8 49 -11 65 -21 133 -107 493 -155 649 -17 54 -32 107 -34 118 -4 17 -17
61 -33 108 -3 8 -6 20 -7 25 -17 75 -62 184 -84 202 -14 13 -29 23 -33 23 -13
0 -9 -60 8 -140 29 -138 58 -326 89 -574 2 -21 7 -55 9 -75 3 -20 8 -63 11
-96 3 -33 8 -73 10 -90 2 -16 7 -57 10 -90 3 -33 8 -73 10 -90 4 -35 15 -141
20 -211 2 -27 7 -74 10 -104 4 -30 8 -75 11 -100 3 -44 11 -122 19 -205 13
-127 22 -226 29 -310 4 -38 9 -86 11 -105 3 -19 7 -66 9 -105 8 -104 17 -189
21 -193 11 -12 312 134 423 204 29 19 55 34 57 34 11 0 222 156 290 213 154
131 295 278 417 437 90 118 157 223 258 405 51 94 138 313 181 460 50 171 71
280 98 510 9 78 7 558 -2 620 -4 22 -9 60 -13 83 -3 24 -7 54 -10 65 -2 12 -9
49 -15 82 -48 273 -181 606 -359 900 -220 363 -447 637 -975 1173 -546 554
-639 652 -745 782 -25 30 -50 60 -56 65 -5 6 -23 28 -39 50 -34 46 -37 50 -68
90 -73 92 -167 246 -226 370 -32 68 -50 112 -100 249 -5 14 -14 -3 -34 -63z"/>
</g>
</svg>
