<svg id="Layer_1" data-name="Layer 1" xmlns="http://www.w3.org/2000/svg" viewBox="0 0 20.99 89.82"><defs><style>.cls-1{fill:#e53a22;}.cls-2{fill:#1a171b;}.cls-3{fill:#fff;}</style></defs><title>logo3</title><path class="cls-1" d="M15,5.84C13,3.91,11.19,2.07,10.64,0,10.09,2.07,8.25,3.91,6.32,5.84,3.43,8.73.15,12,.15,16.93A10.51,10.51,0,0,0,7,26.77c1-3.15,2.41-8,2.49-10,0-.52-0.27-0.28-0.31-0.18l0,0.1s-2,6.39-2.29,7c-0.14.36-.34-0.1-0.34-0.1l-0.63-8a0.27,0.27,0,0,0-.07-0.1,4.73,4.73,0,0,1-1-.38c-0.17-.16-0.42-0.21-0.48-0.3s0-.12,0-0.12-0.13-.1,0-0.17c-0.16-.14.06-0.17,0.11-0.15-0.1-.15.16-0.11,0.16-0.11L5.2,14.35c-0.06-.08.08-0.17,0.16-0.17a1.62,1.62,0,0,1,1,.62L7,14.68s0.83-3.2,2.32-3.36a3.16,3.16,0,0,1,.6-2.66c0.16-.15.66-0.39,0.89-0.58A9.62,9.62,0,0,1,13,10.35c0,0.14-.09.21-0.21,0.08A1,1,0,0,0,12.18,10C12,10.26,13,11.2,12.76,11.66c1.89,1,2.12,3.8,2.58,4.1a2.06,2.06,0,0,1,.45.44c0.16-.12.35-0.35,0.51-0.48a0.42,0.42,0,0,1,.38-0.11h0c0.1-.1.21-0.22,0.28-0.3s0.1,0,.1,0,0.11,0,.11.05,0.06,0.1,0,.2a0.17,0.17,0,0,1,0,.15,1.68,1.68,0,0,1-.11.32,1.46,1.46,0,0,1-.36.41,4,4,0,0,1-.62.23l-1,6.29s-0.34.57-.35,0a26.27,26.27,0,0,0-1.29-5.82s-0.38-.42-0.27,0a90.71,90.71,0,0,1,1.08,9.56,10.51,10.51,0,0,0,6.79-9.82C21.13,12,17.85,8.73,15,5.84Zm1.83,8.49c-0.09.09,0,0,0,0h0C16.8,14.4,16.79,14.35,16.79,14.33Z" transform="translate(-0.15)"/><path class="cls-2" d="M15,37.37c-1.93-1.93-3.77-3.77-4.32-5.84-0.55,2.07-2.39,3.91-4.32,5.84C3.43,40.27.15,43.54,0.15,48.46A10.51,10.51,0,0,0,7,58.31c1-3.15,2.41-8,2.49-10,0-.52-0.27-0.28-0.31-0.18l0,0.1s-2,6.39-2.29,7c-0.14.36-.34-0.1-0.34-0.1l-0.63-8A0.27,0.27,0,0,0,5.81,47a4.73,4.73,0,0,1-1-.38c-0.17-.16-0.42-0.21-0.48-0.3s0-.12,0-0.12-0.13-.1,0-0.17c-0.16-.14.06-0.17,0.11-0.15-0.1-.15.16-0.11,0.16-0.11L5.2,45.89c-0.06-.08.08-0.17,0.16-0.17a1.62,1.62,0,0,1,1,.62L7,46.21S7.85,43,9.34,42.85a3.16,3.16,0,0,1,.6-2.66c0.16-.15.66-0.39,0.89-0.58A9.62,9.62,0,0,1,13,41.88c0,0.14-.09.21-0.21,0.08a1,1,0,0,0-.59-0.41C12,41.8,13,42.73,12.76,43.19c1.89,1,2.12,3.8,2.58,4.1a2.06,2.06,0,0,1,.45.44c0.16-.12.35-0.35,0.51-0.48a0.42,0.42,0,0,1,.38-0.11h0c0.1-.1.21-0.22,0.28-0.3s0.1,0,.1,0,0.11,0,.11.05,0.06,0.1,0,.2a0.17,0.17,0,0,1,0,.15,1.68,1.68,0,0,1-.11.32,1.46,1.46,0,0,1-.36.41,4,4,0,0,1-.62.23l-1,6.29s-0.34.57-.35,0a26.27,26.27,0,0,0-1.29-5.82s-0.38-.42-0.27,0a90.71,90.71,0,0,1,1.08,9.56,10.51,10.51,0,0,0,6.79-9.82C21.13,43.54,17.85,40.27,15,37.37Zm1.83,8.49c-0.09.09,0,0,0,0h0C16.8,45.93,16.79,45.88,16.79,45.86Z" transform="translate(-0.15)"/><path class="cls-3" d="M15,68.89C13,67,11.19,65.12,10.64,63,10.09,65.12,8.25,67,6.32,68.89,3.43,71.78.15,75.06,0.15,80A10.51,10.51,0,0,0,7,89.82c1-3.15,2.41-8,2.49-10,0-.52-0.27-0.28-0.31-0.18l0,0.1s-2,6.39-2.29,7c-0.14.36-.34-0.1-0.34-0.1l-0.63-8a0.27,0.27,0,0,0-.07-0.1,4.73,4.73,0,0,1-1-.38c-0.17-.16-0.42-0.21-0.48-0.3s0-.12,0-0.12-0.13-.1,0-0.17c-0.16-.14.06-0.17,0.11-0.15-0.1-.15.16-0.11,0.16-0.11L5.2,77.4c-0.06-.08.08-0.17,0.16-0.17a1.62,1.62,0,0,1,1,.62L7,77.72s0.83-3.2,2.32-3.36a3.16,3.16,0,0,1,.6-2.66c0.16-.15.66-0.39,0.89-0.58A9.62,9.62,0,0,1,13,73.39c0,0.14-.09.21-0.21,0.08a1,1,0,0,0-.59-0.41c-0.17.24,0.83,1.18,0.58,1.64,1.89,1,2.12,3.8,2.58,4.1a2.06,2.06,0,0,1,.45.44c0.16-.12.35-0.35,0.51-0.48a0.42,0.42,0,0,1,.38-0.11h0c0.1-.1.21-0.22,0.28-0.3s0.1,0,.1,0,0.11,0,.11.05,0.06,0.1,0,.2a0.17,0.17,0,0,1,0,.15,1.68,1.68,0,0,1-.11.32,1.46,1.46,0,0,1-.36.41,4,4,0,0,1-.62.23l-1,6.29s-0.34.57-.35,0a26.27,26.27,0,0,0-1.29-5.82s-0.38-.42-0.27,0a90.71,90.71,0,0,1,1.08,9.56A10.51,10.51,0,0,0,21.13,80C21.13,75.06,17.85,71.78,15,68.89Zm1.83,8.49c-0.09.09,0,0,0,0h0C16.8,77.44,16.79,77.39,16.79,77.38Z" transform="translate(-0.15)"/></svg>
