<?xml version="1.0" encoding="utf-8"?>
<!-- Generator: Adobe Illustrator 19.1.0, SVG Export Plug-In . SVG Version: 6.00 Build 0)  -->
<svg version="1.1" id="Layer_1" xmlns="http://www.w3.org/2000/svg" xmlns:xlink="http://www.w3.org/1999/xlink" x="0px" y="0px"
	 viewBox="0 0 253.1 86" style="enable-background:new 0 0 253.1 86;" xml:space="preserve">
<style type="text/css">
	.st0{fill:#FA4300;}
	.st1{fill:#FFFFFF;}
</style>
<g>
	<path class="st0" d="M47.6,18.8C41.4,12.6,35.5,6.7,33.7,0C31.9,6.7,26,12.6,19.8,18.8C10.5,28,0,38.6,0,54.4
		C0,68.9,9.2,81.2,22,86c3.2-10.1,7.8-25.6,8-32.2c0.1-1.7-0.9-0.9-1-0.6l-0.1,0.3c0,0-6.5,20.5-7.4,22.4c-0.4,1.2-1.1-0.3-1.1-0.3
		l-2-25.6c0-0.1-0.1-0.2-0.2-0.3c-0.9-0.3-2.9-0.9-3.4-1.2c-0.6-0.5-1.3-0.7-1.5-1c-0.2-0.3,0-0.4,0-0.4s-0.4-0.3,0-0.5
		c-0.5-0.4,0.2-0.6,0.3-0.5c-0.3-0.5,0.5-0.4,0.5-0.4s1,0.2,2,0.4c-0.2-0.3,0.2-0.6,0.5-0.5c0.4,0,1.9,0.4,3.2,2l2.1-0.4
		c0,0,2.7-10.3,7.5-10.8c-1-4.7,1.4-8.1,1.9-8.6c0.5-0.5,2.1-1.2,2.9-1.9c0.9,0.9,4.5,3.4,6.9,7.3c0.1,0.5-0.3,0.7-0.7,0.3
		c-0.6-0.6-1.7-1.6-1.9-1.3c-0.5,0.8,2.7,3.8,1.9,5.3c6.1,3.1,6.8,12.2,8.3,13.2c0.5,0.4,1,0.9,1.4,1.4c0.5-0.4,1.1-1.1,1.6-1.5
		c0.3-0.3,1.2-0.5,1.2-0.4l0,0c0,0,0,0,0,0l0,0c0.3-0.3,0.7-0.7,0.9-1c0.3-0.2,0.3,0.1,0.3,0.1s0.4-0.1,0.4,0.2
		c0.3,0.1,0.2,0.3,0,0.7c0.2,0.1,0.1,0.5,0.1,0.5s-0.2,0.7-0.3,1c-0.2,0.3-0.6,0.9-1.2,1.3c-0.4,0.3-1.2,0.4-2,0.8l-3.1,20.2
		c0,0-1.1,1.8-1.1-0.1C47,66.9,43,55.1,43,55.1s-1.2-1.3-0.9,0.1c1.3,5.5,2.7,21,3.5,30.7c12.7-4.8,21.8-17.1,21.8-31.5
		C67.4,38.6,56.9,28,47.6,18.8z M53.5,46C53.2,46.3,53.4,46,53.5,46C53.5,46,53.5,46,53.5,46L53.5,46C53.5,46,53.5,46,53.5,46
		C53.5,46.2,53.5,46.1,53.5,46z"/>
</g>
<g>
	<path d="M135,51.6c0,3.4-0.6,6.6-1.8,9.5c-1.2,2.9-2.8,5.4-5,7.5c-2.1,2.1-4.7,3.8-7.7,4.9c-3,1.2-6.4,1.8-10.1,1.8H92V27.9h18.4
		c3.7,0,7,0.6,10.1,1.8c3,1.2,5.6,2.8,7.7,4.9c2.1,2.1,3.8,4.6,5,7.5C134.4,45,135,48.2,135,51.6z M123.7,51.6
		c0-2.3-0.3-4.5-0.9-6.3c-0.6-1.9-1.5-3.5-2.6-4.8c-1.1-1.3-2.5-2.3-4.2-3c-1.6-0.7-3.5-1.1-5.6-1.1h-7.3v30.4h7.3
		c2.1,0,4-0.4,5.6-1.1c1.6-0.7,3-1.7,4.2-3c1.1-1.3,2-2.9,2.6-4.8C123.4,56,123.7,53.9,123.7,51.6z"/>
	<path d="M140.2,75.2V41.6h6c0.5,0,0.9,0,1.3,0.1c0.3,0.1,0.6,0.2,0.8,0.4c0.2,0.2,0.4,0.4,0.5,0.7s0.2,0.7,0.3,1.1l0.6,3.2
		c1.2-1.9,2.6-3.4,4.2-4.5c1.5-1.1,3.2-1.7,5-1.7c1.5,0,2.8,0.4,3.7,1.1l-1.3,7.4c-0.1,0.5-0.3,0.8-0.5,1c-0.3,0.2-0.6,0.3-1,0.3
		c-0.4,0-0.8,0-1.3-0.1c-0.5-0.1-1.1-0.1-1.9-0.1c-2.6,0-4.7,1.4-6.2,4.2v20.7H140.2z"/>
	<path d="M176.5,41.6v21.4c0,1.7,0.4,3,1.1,3.9c0.8,0.9,1.9,1.4,3.3,1.4c1.1,0,2.1-0.2,3.1-0.7c1-0.5,1.9-1.1,2.8-1.9v-24h10.1v33.7
		h-6.2c-1.3,0-2.1-0.6-2.5-1.7l-0.6-1.9c-0.6,0.6-1.3,1.2-2,1.7c-0.7,0.5-1.4,0.9-2.2,1.3c-0.8,0.4-1.6,0.6-2.5,0.8
		c-0.9,0.2-1.9,0.3-3,0.3c-1.8,0-3.5-0.3-4.9-1c-1.4-0.6-2.6-1.5-3.6-2.7c-1-1.1-1.7-2.5-2.2-4.1c-0.5-1.6-0.7-3.3-0.7-5.1V41.6
		H176.5z"/>
	<path d="M216.3,32.3c0,0.8-0.2,1.6-0.5,2.3c-0.3,0.7-0.8,1.3-1.3,1.9c-0.6,0.5-1.2,1-2,1.3c-0.7,0.3-1.5,0.5-2.4,0.5
		c-0.8,0-1.6-0.2-2.3-0.5c-0.7-0.3-1.3-0.7-1.9-1.3c-0.6-0.5-1-1.1-1.3-1.9c-0.3-0.7-0.5-1.5-0.5-2.3c0-0.8,0.2-1.6,0.5-2.3
		c0.3-0.7,0.7-1.3,1.3-1.9c0.6-0.5,1.2-1,1.9-1.3s1.5-0.5,2.3-0.5c0.8,0,1.6,0.2,2.4,0.5c0.7,0.3,1.4,0.7,2,1.3
		c0.6,0.5,1,1.2,1.3,1.9S216.3,31.5,216.3,32.3z M215.1,41.6v33.7h-10.1V41.6H215.1z"/>
	<path d="M246.9,75.2c-0.6,0-1.2-0.1-1.6-0.4c-0.4-0.3-0.7-0.7-0.9-1.3l-0.8-2.6c-0.7,0.7-1.4,1.4-2.1,1.9c-0.7,0.6-1.5,1.1-2.4,1.5
		s-1.8,0.7-2.8,1c-1,0.2-2.1,0.3-3.2,0.3c-1.8,0-3.4-0.4-4.9-1.2c-1.5-0.8-2.8-1.9-3.9-3.4c-1.1-1.5-1.9-3.3-2.5-5.4
		c-0.6-2.1-0.9-4.6-0.9-7.3c0-2.5,0.3-4.8,1-7c0.7-2.2,1.7-4,2.9-5.6c1.3-1.6,2.8-2.8,4.6-3.7c1.8-0.9,3.7-1.3,5.9-1.3
		c1.7,0,3.2,0.3,4.4,0.8c1.2,0.5,2.3,1.2,3.3,2V26.6h10.1v48.6H246.9z M236.7,68c0.7,0,1.4-0.1,2-0.2c0.6-0.1,1.1-0.3,1.6-0.6
		c0.5-0.3,1-0.6,1.4-1c0.4-0.4,0.9-0.8,1.3-1.4V50.6c-0.8-0.8-1.6-1.4-2.5-1.8c-0.9-0.3-1.8-0.5-2.8-0.5c-0.9,0-1.8,0.2-2.6,0.6
		c-0.8,0.4-1.5,1-2,1.8c-0.6,0.8-1,1.9-1.3,3.2c-0.3,1.3-0.5,2.9-0.5,4.7c0,1.8,0.1,3.3,0.4,4.5c0.3,1.2,0.6,2.2,1.1,2.9
		c0.5,0.7,1,1.3,1.7,1.6C235.2,67.9,235.9,68,236.7,68z"/>
</g>
</svg>
